<svg width="1303" height="142" viewBox="0 0 1303 142" fill="none" xmlns="http://www.w3.org/2000/svg">
<g clip-path="url(#clip0_1704_2438)">
<path d="M70.5232 129.527C57.8407 142.209 45.4364 142.106 32.8569 129.527C20.8441 141.539 -0.2453 121.893 12.4887 109.16C-0.131972 96.591 -0.193787 84.1768 12.4887 71.5051C-0.193787 58.8231 -0.131972 46.4193 12.4887 33.8403C0.486184 21.828 20.1229 0.739397 32.8363 13.4729C45.4158 0.893929 57.8201 0.790907 70.5026 13.4729C83.1747 0.790907 95.5894 0.893929 108.159 13.4729C120.171 1.47085 141.261 21.1068 128.527 33.8403C141.106 46.4193 141.209 58.8231 128.527 71.5051C141.209 84.1768 141.106 96.591 128.527 109.16C140.54 121.172 120.893 142.261 108.159 129.527C95.61 142.106 83.1954 142.209 70.5232 129.527Z" fill="#F9BAC7" stroke="#F499AF" stroke-width="6" stroke-linecap="round" stroke-linejoin="round"/>
<path d="M71 13C67.9973 16.0137 66.2284 19.9053 66 24Z" fill="#22C55E"/>
<path d="M71 13C67.9973 16.0137 66.2284 19.9053 66 24" stroke="#F499AF" stroke-width="6" stroke-linecap="round" stroke-linejoin="round"/>
<path d="M129 71C125.989 68.5987 122.096 67.1833 118 67Z" fill="#F9BAC7"/>
<path d="M129 71C125.989 68.5987 122.096 67.1833 118 67" stroke="#F1839F" stroke-width="6" stroke-linecap="round" stroke-linejoin="round"/>
<path d="M13 71C15.7383 68.6 19.2763 67.1848 23 67Z" fill="#F9BAC7"/>
<path d="M13 71C15.7383 68.6 19.2763 67.1848 23 67" stroke="#F1839F" stroke-width="6" stroke-linecap="round" stroke-linejoin="round"/>
<path d="M33 13C29.9973 16.0137 28.2284 19.9053 28 24Z" fill="#22C55E"/>
<path d="M33 13C29.9973 16.0137 28.2284 19.9053 28 24" stroke="#F499AF" stroke-width="6" stroke-linecap="round" stroke-linejoin="round"/>
<path d="M71 129C73.4084 125.985 74.8237 122.093 75 118Z" fill="#22C55E"/>
<path d="M71 129C73.4084 125.985 74.8237 122.093 75 118" stroke="#F499AF" stroke-width="6" stroke-linecap="round" stroke-linejoin="round"/>
<path d="M33 129C29.9948 125.988 28.2255 122.095 28 118Z" fill="#22C55E"/>
<path d="M33 129C29.9948 125.988 28.2255 122.095 28 118" stroke="#F499AF" stroke-width="6" stroke-linecap="round" stroke-linejoin="round"/>
<path d="M52 57.0009C52 63.066 48.4194 67.9863 44 68C39.5806 68.0136 36 63.0797 36 57.0145C36 50.9493 39.5931 46.1108 44 46.0017C48.4069 45.8927 52 50.9357 52 57.0009Z" fill="#863A68"/>
<path d="M104 57.0009C104 63.066 100.419 67.9863 96 68C91.5806 68.0136 88 63.0797 88 57.0145C88 50.9493 91.5931 46.1108 96 46.0017C100.407 45.8927 104 50.9357 104 57.0009Z" fill="#863A68"/>
<path d="M70.9727 104C57.4692 104 50.0046 96.0493 50.0046 86.2508C49.971 85.3224 50.1224 84.3966 50.4498 83.5274C50.7773 82.6581 51.2743 81.8629 51.9118 81.1879C52.5494 80.513 53.3147 79.972 54.1633 79.5963C55.0118 79.2207 55.9266 79.018 56.8542 79H85.1472C86.0712 79.0181 86.9823 79.2195 87.8281 79.5925C88.6738 79.9655 89.4372 80.5028 90.0742 81.1732C90.7112 81.8436 91.2091 82.6339 91.5391 83.4982C91.8692 84.3626 92.0247 85.2839 91.9968 86.2088V86.2088C91.9968 96.0073 84.4623 104 70.9727 104Z" fill="#863A68"/>
<path d="M88 83.9229C88 83.9229 88 83.4074 88 82.9699C87.9791 82.6964 87.8663 82.4428 87.6854 82.2622C87.5044 82.0817 87.2694 81.9881 87.0294 82.0013H55.9706C55.7328 81.9879 55.4996 82.0792 55.319 82.2566C55.1384 82.4339 55.0242 82.6836 55 82.9543C55 83.4074 55 83.8604 55 83.9229C55 88.3911 58.2535 92 71.5273 92C84.8012 92 88 88.3911 88 83.9229Z" fill="white"/>
<path opacity="0.6" d="M112.546 100.151C114.545 99.0847 116.25 97.5789 117.521 95.7582C118.788 93.9462 119.593 91.8756 119.871 89.7125C120.206 87.2236 119.886 84.6944 118.942 82.353C117.998 80.0116 116.459 77.9318 114.464 76.3011C114.196 76.1058 113.868 76 113.531 76C113.194 76 112.866 76.1058 112.598 76.3011C112.335 76.5004 112.146 76.7762 112.061 77.087C111.978 77.4029 112.007 77.7363 112.145 78.0342C112.493 78.5884 112.862 79.1426 113.262 79.6665C113.68 80.3889 114.033 81.144 114.316 81.9236C115.582 85.1426 115.559 88.6949 114.253 91.899C113.395 93.7244 112.12 95.3428 110.522 96.6348C109.794 97.2595 108.519 97.7935 108.14 98.7004C107.76 99.6072 108.509 101.28 108.74 102.348C109.421 104.881 109.262 107.553 108.287 109.996C107.136 112.124 105.402 113.914 103.27 115.175C102.363 115.779 100.919 116.334 101.004 117.593C101.119 119.125 102.69 119.155 103.871 118.843C106.878 118.081 109.556 116.431 111.523 114.127C114.812 110.097 114.854 104.545 112.546 100.151Z" fill="#F1839F"/>
<path opacity="0.6" d="M93.3202 94.3566C92.9046 94.832 92.653 95.4379 92.6052 96.0787C92.4082 97.1498 92.0964 98.1945 91.6757 99.1933C90.8395 101.142 89.5386 102.836 87.8963 104.115C85.2679 106.194 81.9939 107.19 78.7031 106.911C78.4634 106.887 78.2216 106.923 77.9983 107.017C77.7695 107.099 77.5653 107.242 77.4058 107.432C77.236 107.611 77.1099 107.829 77.0381 108.069C76.9873 108.315 76.9873 108.568 77.0381 108.813C77.2016 109.876 78.2128 110.259 79.081 110.536C81.5827 111.258 84.2402 111.135 86.6705 110.185C89.9538 108.992 92.7161 106.612 94.4541 103.477C95.5224 101.402 96.044 99.0694 95.9658 96.7165C96.0724 95.9799 95.9279 95.2277 95.5573 94.5905C95.3009 94.2689 94.9348 94.0632 94.5358 94.0165C94.3216 93.9849 94.1035 93.9988 93.8946 94.0573C93.6857 94.1157 93.4903 94.2175 93.3202 94.3566V94.3566Z" fill="#F1839F"/>
<path opacity="0.6" d="M27.247 106.441C27.7417 105.858 28.0418 105.118 28.1011 104.336C28.3303 103.02 28.6967 101.735 29.1935 100.505C30.2058 98.1051 31.778 96.0186 33.762 94.4417C36.9504 91.8734 40.9247 90.6507 44.915 91.0102C45.205 91.0371 45.497 90.9939 45.7691 90.8839C46.0403 90.7698 46.2844 90.5937 46.4841 90.3682C46.6827 90.1422 46.8319 89.8726 46.9211 89.5787C47.0054 89.2855 47.0224 88.9751 46.9708 88.6735C46.7821 87.442 45.5605 86.8946 44.5376 86.5683C41.5152 85.6811 38.3048 85.8359 35.3709 87.0104C31.4064 88.4774 28.0718 91.4063 25.9758 95.2627C24.6326 97.836 23.9639 100.744 24.0391 103.683C23.9154 104.583 24.0872 105.501 24.5258 106.283C24.8599 106.691 25.3293 106.948 25.8367 106.999C26.3577 107.016 26.8642 106.816 27.247 106.441Z" fill="#F1839F"/>
<path opacity="0.6" d="M95.0559 23.4572C94.8225 23.5317 94.6087 23.6626 94.4316 23.8393C94.2583 24.0127 94.127 24.2275 94.049 24.4656C93.9837 24.7121 93.9837 24.9727 94.049 25.2192C94.0963 25.4732 94.2037 25.7105 94.3611 25.9091C94.9149 26.5672 95.9118 26.4929 96.667 26.5884C98.794 26.8288 100.851 27.5299 102.709 28.6476C105.18 30.2296 107.053 32.6688 108.005 35.547C108.448 36.8207 108.619 39.3257 110.502 38.9648C112.385 38.6039 112.023 35.7805 111.862 34.4325C110.754 26.1002 102.457 21.4723 95.0559 23.4572Z" fill="#F1839F"/>
<path d="M50.319 13.1336C48.1801 10.8173 44.6253 12.5241 42.5271 14.0581C41.5086 14.7795 38.5548 17.9086 40.8567 18.8737C42.0993 19.3817 43.9123 18.2133 45.155 17.9086C47.0087 17.4514 48.8319 18.0813 50.319 16.5269C50.7561 16.0696 51 15.4621 51 14.8303C51 14.1984 50.7561 13.5909 50.319 13.1336Z" fill="#FFE2E1"/>
<path d="M16.5662 44.0742C13.1403 43.3507 10.4587 48.0854 11.0935 50.9369C11.1687 51.1814 11.3072 51.403 11.4958 51.5805C11.6844 51.758 11.9167 51.8855 12.1705 51.9506C12.4243 52.0158 12.691 52.0165 12.9452 51.9526C13.1993 51.8887 13.4324 51.7625 13.6219 51.5859C14.4428 50.9263 15.0667 49.9687 15.8109 49.2239C16.8507 48.2131 17.8358 47.5002 18 45.9468C18.0016 45.5239 17.8592 45.1124 17.595 44.7765C17.3385 44.4411 16.9777 44.1949 16.5662 44.0742V44.0742Z" fill="#FFE2E1"/>
<path d="M78.558 16.0744C75.1388 15.3508 72.4515 20.0754 73.096 22.9379C73.1727 23.1825 73.3123 23.4039 73.5016 23.5812C73.6909 23.7585 73.9235 23.8856 74.1774 23.9507C74.4314 24.0157 74.6981 24.0164 74.9524 23.9528C75.2067 23.8891 75.4401 23.7632 75.6304 23.587C76.4388 22.9166 77.0724 21.9696 77.8152 21.2247C78.9076 20.1606 79.8471 19.5008 80 17.9472C80 17.5213 79.8582 17.1068 79.5958 16.766C79.3269 16.4414 78.9661 16.2009 78.558 16.0744Z" fill="#FFE2E1"/>
<path d="M37.5581 97.0744C34.1281 96.3508 31.4518 101.075 32.0963 103.938C32.173 104.183 32.3126 104.404 32.5019 104.581C32.6911 104.758 32.9238 104.886 33.1777 104.951C33.4316 105.016 33.6984 105.016 33.9526 104.953C34.2069 104.889 34.4403 104.763 34.6306 104.587C35.4389 103.917 36.0616 102.97 36.8153 102.225C37.853 101.161 38.8471 100.501 39 98.9472C39.0009 98.5194 38.8548 98.1036 38.5849 97.766C38.3246 97.4373 37.9657 97.1955 37.5581 97.0744V97.0744Z" fill="#FFE2E1"/>
<path d="M17.8889 85.6502C17.6658 85.0761 17.156 84.5906 16.4677 84.2966C15.7794 84.0026 14.9668 83.9234 14.2025 84.0758C13.5113 84.2589 12.8858 84.561 12.3752 84.9584C11.8647 85.3558 11.4831 85.8376 11.2605 86.3658C10.9981 86.806 10.9317 87.2989 11.0715 87.7702C11.2194 88.1017 11.4568 88.4064 11.7686 88.6647C11.9515 88.8095 12.1851 88.9119 12.4421 88.9599C12.6932 89.0134 12.9589 89.0134 13.21 88.9599C13.2927 88.9599 13.5527 88.8973 13.4936 88.8973H13.7063L14.2143 88.7363L14.4743 88.62L14.5806 88.5663H14.7815C15.1261 88.5678 15.4689 88.5286 15.7976 88.45C16.5564 88.2818 17.2051 87.9054 17.6171 87.3945C18.0054 86.8623 18.1029 86.2361 17.8889 85.6502V85.6502Z" fill="#FFE2E1"/>
<path d="M20.9072 18.9706C20.7075 18.2874 20.2692 17.711 19.6819 17.3594C19.0955 17.004 18.4008 16.9075 17.7479 17.0908C17.1536 17.3093 16.6155 17.6715 16.1761 18.1488C15.7367 18.6261 15.4081 19.2054 15.2164 19.8407C15.0015 20.3722 14.945 20.9607 15.0543 21.5272C15.1887 21.9239 15.3951 22.2889 15.6619 22.6014C15.8181 22.7736 16.0161 22.8968 16.234 22.9575C16.452 23.0181 16.6815 23.0138 16.8973 22.9451C16.958 22.9451 17.1909 22.8806 17.1403 22.8806H17.3226L17.758 22.6873L17.9808 22.5369L18.0719 22.4832H18.244C18.5392 22.494 18.8338 22.4504 19.1149 22.3543C19.749 22.1471 20.2917 21.7048 20.6439 21.1083C20.8191 20.7882 20.9326 20.4344 20.9778 20.0675C21.023 19.7005 20.999 19.3277 20.9072 18.9706V18.9706Z" fill="#FFE2E1"/>
<path fill-rule="evenodd" clip-rule="evenodd" d="M132.801 34H8.20818C2.93672 39.9216 0.00804717 46.126 1.65583e-05 52.6304C-0.00786903 59.0174 2.80101 65.1355 7.91021 71H133.105C138.213 65.1338 141.013 59.0147 141 52.6279C140.987 46.1251 138.058 39.9215 132.801 34Z" fill="#20A952"/>
<path d="M55 53.0011C55 60.7204 50.0767 66.9826 44 67C37.9233 67.0173 33 60.7378 33 53.0184C33 45.2991 37.9405 39.141 44 39.0022C50.0595 38.8634 55 45.2818 55 53.0011Z" fill="white"/>
<path d="M49 53.0005C49 56.8602 46.7621 59.9913 44 60C41.2379 60.0087 39 56.8689 39 53.0092C39 49.1495 41.2457 46.0705 44 46.0011C46.7543 45.9317 49 49.1409 49 53.0005Z" fill="black"/>
<path d="M107 53.0011C107 60.7204 102.077 66.9826 96 67C89.9233 67.0173 85 60.7378 85 53.0184C85 45.2991 89.9405 39.141 96 39.0022C102.059 38.8634 107 45.2818 107 53.0011Z" fill="white"/>
<path d="M101 53.0005C101 56.8602 98.7621 59.9913 96 60C93.2379 60.0087 91 56.8689 91 53.0092C91 49.1495 93.2457 46.0705 96 46.0011C98.7543 45.9317 101 49.1409 101 53.0005Z" fill="black"/>
<path d="M184 99.8561V40.0775C184 36.0922 184.999 35.0959 188.996 35.0959H205.281C220.368 35.0959 227.861 42.5683 227.861 53.2288C227.861 61.2989 223.665 66.3801 218.07 67.3764C224.164 68.3727 231.358 71.3616 231.358 84.4133C231.358 97.5646 222.466 104.838 207.979 104.838H188.996C184.999 104.838 184 103.841 184 99.8561ZM208.079 75.048H196.889V92.583H208.378C214.373 92.583 217.87 89.2952 217.87 83.9151C217.87 78.1365 214.073 75.048 208.079 75.048ZM205.281 47.3506H196.889V62.7934H205.281C211.775 62.7934 214.473 59.6052 214.473 54.8229C214.473 50.0406 211.875 47.3506 205.281 47.3506Z" fill="white"/>
<path d="M267.448 59.2066V63.8893C267.448 66.7786 265.949 67.7749 263.951 67.5756C263.052 67.3764 262.452 67.3764 261.952 67.3764C257.656 67.3764 251.762 71.262 251.762 83.0185V99.8561C251.762 103.841 250.762 104.838 246.866 104.838H244.768C240.771 104.838 239.772 103.841 239.772 99.8561V62.1956C239.772 58.2103 240.771 57.214 244.768 57.214H245.767C249.763 57.214 250.762 58.2103 250.762 62.1956V67.0775C251.861 60.5018 256.957 55.5203 263.351 55.5203H264.25C266.149 55.6199 267.448 56.2177 267.448 59.2066Z" fill="white"/>
<path d="M310.824 99.9557C310.824 103.941 310.224 104.937 306.328 104.937H306.028C302.032 104.937 301.132 104.041 300.033 100.155C297.636 103.742 292.44 105.834 285.846 105.834C275.955 105.834 270.36 100.852 270.36 91.1882C270.36 82.321 276.055 76.0443 290.942 76.0443H299.034C298.735 69.8672 296.137 67.7749 290.542 67.7749C285.946 67.7749 284.148 68.6716 281.95 70.0664C279.751 71.3616 278.952 71.262 276.654 69.1697L274.956 67.5756C273.757 66.5793 273.357 65.583 273.357 64.6863C273.357 63.0922 274.856 61.797 275.855 61.0996C279.751 58.0111 284.347 56.1181 290.542 56.1181C301.432 56.1181 310.824 61.4982 310.824 77.0406V99.9557ZM299.034 86.7048V85.2103H290.942C285.047 85.2103 282.449 87.1033 282.449 90.5904C282.449 94.3764 285.347 95.7712 288.544 95.7712C294.039 95.7712 299.034 93.7786 299.034 86.7048Z" fill="white"/>
<path d="M320.95 99.8561V62.1956C320.95 58.2103 321.949 57.214 325.946 57.214H328.144C332.04 57.214 333.139 58.2103 333.139 62.1956V99.8561C333.139 103.841 332.04 104.838 328.144 104.838H325.946C321.949 104.838 320.95 103.841 320.95 99.8561ZM320.251 41.1734C320.251 37.2878 322.549 34 327.045 34C331.74 34 333.838 37.2878 333.838 41.1734C333.838 45.059 331.74 48.2472 327.045 48.2472C322.549 48.2472 320.251 45.059 320.251 41.1734Z" fill="white"/>
<path d="M355.675 62.1956V65.6827C356.974 60.1033 361.97 56.1181 369.063 56.1181C378.255 56.1181 384.15 62.5941 384.15 74.4502V99.8561C384.15 103.841 383.151 104.838 379.154 104.838H376.956C373.06 104.838 372.061 103.841 372.061 99.8561V76.941C372.061 70.6642 369.863 66.8782 365.666 66.8782C359.472 66.8782 355.875 72.5572 355.675 80.428V99.8561C355.675 103.841 354.676 104.838 350.78 104.838H348.582C344.585 104.838 343.586 103.841 343.586 99.8561V62.1956C343.586 58.2103 344.585 57.214 348.582 57.214H350.78C354.676 57.214 355.675 58.2103 355.675 62.1956Z" fill="white"/>
<path d="M475.181 99.8561V47.6494C474.182 52.631 472.983 57.5129 471.485 62.2952L459.196 100.155C457.997 103.941 456.598 104.838 452.701 104.838H450.104C446.207 104.838 444.908 103.941 443.61 100.155L431.92 62.3948C430.321 57.5129 429.222 52.4317 428.323 47.3506V99.8561C428.323 103.841 427.324 104.838 423.328 104.838H420.43C416.434 104.838 415.435 103.841 415.435 99.8561V40.0775C415.435 36.0922 416.434 35.0959 420.43 35.0959H431.32C435.217 35.0959 436.616 35.9926 437.715 39.7786L451.403 88.8967L465.99 39.7786C467.189 35.9926 468.587 35.0959 472.484 35.0959H483.074C487.071 35.0959 487.97 36.0922 487.97 40.0775V99.8561C487.97 103.841 487.071 104.838 483.074 104.838H480.177C476.181 104.838 475.181 103.841 475.181 99.8561Z" fill="white"/>
<path d="M537.965 99.9557C537.965 103.941 537.366 104.937 533.469 104.937H533.17C529.173 104.937 528.274 104.041 527.175 100.155C524.777 103.742 519.582 105.834 512.988 105.834C503.096 105.834 497.501 100.852 497.501 91.1882C497.501 82.321 503.196 76.0443 518.083 76.0443H526.176C525.876 69.8672 523.278 67.7749 517.683 67.7749C513.088 67.7749 511.289 68.6716 509.091 70.0664C506.893 71.3616 506.094 71.262 503.796 69.1697L502.097 67.5756C500.898 66.5793 500.499 65.583 500.499 64.6863C500.499 63.0922 501.997 61.797 502.997 61.0996C506.893 58.0111 511.489 56.1181 517.683 56.1181C528.574 56.1181 537.965 61.4982 537.965 77.0406V99.9557ZM526.176 86.7048V85.2103H518.083C512.188 85.2103 509.591 87.1033 509.591 90.5904C509.591 94.3764 512.488 95.7712 515.685 95.7712C521.18 95.7712 526.176 93.7786 526.176 86.7048Z" fill="white"/>
<path d="M560.181 62.1956V65.6827C561.48 60.1033 566.475 56.1181 573.569 56.1181C582.761 56.1181 588.655 62.5941 588.655 74.4502V99.8561C588.655 103.841 587.656 104.838 583.66 104.838H581.462C577.565 104.838 576.566 103.841 576.566 99.8561V76.941C576.566 70.6642 574.368 66.8782 570.172 66.8782C563.977 66.8782 560.381 72.5572 560.181 80.428V99.8561C560.181 103.841 559.182 104.838 555.285 104.838H553.087C549.091 104.838 548.092 103.841 548.092 99.8561V62.1956C548.092 58.2103 549.091 57.214 553.087 57.214H555.285C559.182 57.214 560.181 58.2103 560.181 62.1956Z" fill="white"/>
<path d="M637.193 99.9557C637.193 103.941 636.594 104.937 632.697 104.937H632.398C628.401 104.937 627.502 104.041 626.403 100.155C624.005 103.742 618.81 105.834 612.216 105.834C602.325 105.834 596.729 100.852 596.729 91.1882C596.729 82.321 602.424 76.0443 617.311 76.0443H625.404C625.104 69.8672 622.507 67.7749 616.912 67.7749C612.316 67.7749 610.517 68.6716 608.319 70.0664C606.121 71.3616 605.322 71.262 603.024 69.1697L601.325 67.5756C600.126 66.5793 599.727 65.583 599.727 64.6863C599.727 63.0922 601.225 61.797 602.225 61.0996C606.121 58.0111 610.717 56.1181 616.912 56.1181C627.802 56.1181 637.193 61.4982 637.193 77.0406V99.9557ZM625.404 86.7048V85.2103H617.311C611.416 85.2103 608.819 87.1033 608.819 90.5904C608.819 94.3764 611.716 95.7712 614.913 95.7712C620.408 95.7712 625.404 93.7786 625.404 86.7048Z" fill="white"/>
<path d="M683.487 57.214H685.685C689.582 57.214 690.581 58.2103 690.581 62.1956V100.055C690.581 118.985 682.888 126.956 666.003 126.956C658.11 126.956 652.115 125.063 648.119 122.472C646.72 121.476 646.021 120.679 646.021 119.683C646.021 118.886 646.42 117.889 647.12 116.594L648.519 114.203C649.418 112.609 650.417 112.011 651.516 112.011C652.615 112.011 653.814 112.609 654.913 113.207C657.511 114.701 660.308 116.295 665.004 116.295C673.696 116.295 678.492 111.214 678.492 100.653V98.5609C675.594 103.542 670.999 105.834 665.304 105.834C652.815 105.834 645.122 96.7675 645.122 81.2251C645.122 65.8819 652.915 56.1181 665.404 56.1181C671.098 56.1181 675.594 58.5092 678.492 63.4908V62.1956C678.492 58.2103 679.491 57.214 683.487 57.214ZM678.392 81.3247C678.392 73.4539 674.296 66.7786 667.801 66.7786C661.207 66.7786 657.411 72.1587 657.411 81.3247C657.411 90.69 661.407 95.1734 667.901 95.1734C674.495 95.1734 678.392 89.0959 678.392 81.3247Z" fill="white"/>
<path d="M720.261 56.1181C734.648 56.1181 741.742 66.4797 741.742 80.3284V81.6236C741.742 85.6089 740.843 86.6052 736.946 86.6052H711.569C712.668 92.2841 715.765 95.2731 721.86 95.2731C726.455 95.2731 729.453 93.8782 731.851 92.3838C735.148 90.4908 736.047 90.4908 737.745 92.2841L739.943 94.5756C740.843 95.572 741.242 96.369 741.242 97.166C741.242 98.0627 740.743 98.9594 739.544 99.9557C735.947 103.044 730.951 105.834 721.959 105.834C708.172 105.834 698.88 97.5646 698.88 81.0258C698.88 66.679 706.673 56.1181 720.261 56.1181ZM720.261 66.679C715.365 66.679 712.268 69.9668 711.369 76.2435H729.653C728.653 70.0664 725.356 66.679 720.261 66.679Z" fill="white"/>
<path d="M750.646 99.8561V62.1956C750.646 58.2103 751.645 57.214 755.641 57.214H757.739C761.736 57.214 762.735 58.2103 762.735 62.1956V65.6827C763.834 60.0037 769.029 56.1181 775.523 56.1181C780.719 56.1181 786.514 58.6089 789.011 65.2841C791.01 59.7048 795.606 56.1181 802.599 56.1181C810.293 56.1181 817.986 60.4022 817.986 72.7565V99.8561C817.986 103.841 816.987 104.838 812.99 104.838H810.792C806.896 104.838 805.797 103.841 805.797 99.8561V78.3358C805.797 71.4613 804.298 67.6753 799.402 67.6753C794.606 67.6753 790.31 72.1587 790.31 80.3284V99.8561C790.31 103.841 789.311 104.838 785.315 104.838H783.217C779.22 104.838 778.221 103.841 778.221 99.8561V78.3358C778.221 71.4613 775.823 67.6753 771.327 67.6753C767.231 67.6753 762.935 71.0627 762.735 79.8303V99.8561C762.735 103.841 761.736 104.838 757.739 104.838H755.641C751.645 104.838 750.646 103.841 750.646 99.8561Z" fill="white"/>
<path d="M847.296 56.1181C861.684 56.1181 868.777 66.4797 868.777 80.3284V81.6236C868.777 85.6089 867.878 86.6052 863.981 86.6052H838.604C839.703 92.2841 842.8 95.2731 848.895 95.2731C853.491 95.2731 856.488 93.8782 858.886 92.3838C862.183 90.4908 863.082 90.4908 864.781 92.2841L866.979 94.5756C867.878 95.572 868.278 96.369 868.278 97.166C868.278 98.0627 867.778 98.9594 866.579 99.9557C862.982 103.044 857.987 105.834 848.995 105.834C835.207 105.834 825.915 97.5646 825.915 81.0258C825.915 66.679 833.708 56.1181 847.296 56.1181ZM847.296 66.679C842.401 66.679 839.303 69.9668 838.404 76.2435H856.688C855.689 70.0664 852.392 66.679 847.296 66.679Z" fill="white"/>
<path d="M889.77 62.1956V65.6827C891.069 60.1033 896.065 56.1181 903.158 56.1181C912.35 56.1181 918.245 62.5941 918.245 74.4502V99.8561C918.245 103.841 917.246 104.838 913.249 104.838H911.051C907.155 104.838 906.156 103.841 906.156 99.8561V76.941C906.156 70.6642 903.958 66.8782 899.761 66.8782C893.567 66.8782 889.97 72.5572 889.77 80.428V99.8561C889.77 103.841 888.771 104.838 884.875 104.838H882.677C878.68 104.838 877.681 103.841 877.681 99.8561V62.1956C877.681 58.2103 878.68 57.214 882.677 57.214H884.875C888.771 57.214 889.77 58.2103 889.77 62.1956Z" fill="white"/>
<path d="M942.816 49.0443V57.214H948.711C952.607 57.214 953.706 58.2103 953.706 62.1956V63.69C953.706 67.6753 952.607 68.6716 948.711 68.6716H942.816V86.5055C942.816 92.7823 944.914 94.1771 947.312 94.1771C949.01 94.1771 950.209 93.8782 951.508 93.8782C953.207 93.7786 954.106 94.7749 954.106 97.2657V101.749C954.106 104.24 952.807 105.137 950.809 105.336C949.21 105.535 947.412 105.635 945.813 105.635C935.522 105.635 930.627 100.155 930.627 89.7934V68.6716H928.828C924.832 68.6716 923.833 67.6753 923.833 63.69V62.1956C923.833 58.2103 924.832 57.214 928.828 57.214H930.627L933.824 49.7417C935.123 47.1513 936.322 44.0627 938.72 44.0627H939.419C942.117 44.0627 942.816 45.059 942.816 49.0443Z" fill="white"/>
<path d="M1002.19 46.0553C995.694 46.0553 992.697 48.6458 992.697 53.5277C992.697 65.9816 1021.77 61.9963 1021.77 85.5092C1021.77 98.0627 1013.58 105.834 999.79 105.834C989.999 105.834 983.705 102.745 980.407 99.4576C979.308 98.3616 978.809 97.2657 978.809 96.1697C978.809 94.9742 979.408 93.7786 980.607 92.583L982.206 90.9889C983.405 89.6937 984.604 89.0959 985.803 89.0959C987.101 89.0959 988.3 89.7934 989.699 90.8893C992.297 93.1808 995.494 94.3764 999.69 94.3764C1005.19 94.3764 1009.18 91.2878 1009.18 85.6089C1009.18 71.9594 980.108 78.4354 980.108 53.6273C980.108 41.4723 987.701 34.1993 1001.39 34.1993C1008.18 34.1993 1013.48 36.1919 1017.97 39.7786C1018.77 40.3764 1019.87 41.2731 1019.87 42.6679C1019.87 43.6642 1019.37 44.8598 1017.77 46.4539L1016.08 48.048C1014.58 49.5424 1013.28 50.0406 1012.28 50.0406C1010.88 50.0406 1009.98 49.1439 1009.38 48.6458C1007.28 47.2509 1005.19 46.0553 1002.19 46.0553Z" fill="white"/>
<path d="M1038.73 61.9963L1046.92 92.7823L1055.91 61.8967C1056.91 58.1107 1058.31 57.214 1062.3 57.214H1065.9C1069.9 57.214 1070.5 58.1107 1069.3 61.8967L1055.61 104.838L1053.61 111.015C1050.22 121.476 1045.22 126.756 1036.43 126.956C1035.53 126.956 1034.63 127.055 1033.73 126.956C1031.83 126.756 1030.13 126.557 1029.13 125.461C1028.34 124.764 1028.04 123.369 1028.43 121.177L1028.63 119.683C1029.13 116.395 1029.83 115.299 1031.43 115.299C1032.03 115.299 1032.53 115.498 1033.43 115.498C1038.03 115.498 1040.82 113.506 1042.52 107.428L1043.22 104.838H1042.62C1038.63 104.838 1037.23 103.244 1036.03 99.1587L1025.14 61.8967C1024.04 58.1107 1024.64 57.214 1028.63 57.214H1032.53C1036.53 57.214 1037.73 58.2103 1038.73 61.9963Z" fill="white"/>
<path d="M1092.04 56.1181C1097.73 56.1181 1102.43 57.7122 1105.62 60.203C1107.32 61.5978 1108.12 62.5941 1108.12 63.69C1108.12 64.4871 1107.72 65.4834 1106.72 66.679L1105.72 67.9742C1104.53 69.4686 1103.33 70.1661 1102.13 70.1661C1101.13 70.1661 1100.13 69.7675 1099.13 68.9705C1097.03 67.5756 1094.83 66.679 1092.04 66.679C1088.94 66.679 1087.14 67.6753 1087.14 70.2657C1087.14 77.5387 1109.52 72.2583 1109.52 90.2915C1109.52 98.9594 1104.33 105.834 1090.84 105.834C1083.84 105.834 1078.05 104.339 1074.15 100.354C1073.15 99.3579 1072.65 98.4613 1072.65 97.5646C1072.65 96.5683 1073.15 95.572 1074.25 94.476L1075.45 93.1808C1078.15 90.2915 1079.45 89.9926 1081.45 91.9852C1083.54 93.9779 1086.24 95.2731 1090.94 95.2731C1095.23 95.2731 1097.53 93.5793 1097.53 90.4908C1097.53 81.7232 1075.15 89.0959 1075.15 70.7638C1075.15 60.6015 1081.95 56.1181 1092.04 56.1181Z" fill="white"/>
<path d="M1132.1 49.0443V57.214H1138C1141.89 57.214 1142.99 58.2103 1142.99 62.1956V63.69C1142.99 67.6753 1141.89 68.6716 1138 68.6716H1132.1V86.5055C1132.1 92.7823 1134.2 94.1771 1136.6 94.1771C1138.3 94.1771 1139.49 93.8782 1140.79 93.8782C1142.49 93.7786 1143.39 94.7749 1143.39 97.2657V101.749C1143.39 104.24 1142.09 105.137 1140.09 105.336C1138.49 105.535 1136.7 105.635 1135.1 105.635C1124.81 105.635 1119.91 100.155 1119.91 89.7934V68.6716H1118.11C1114.12 68.6716 1113.12 67.6753 1113.12 63.69V62.1956C1113.12 58.2103 1114.12 57.214 1118.11 57.214H1119.91L1123.11 49.7417C1124.41 47.1513 1125.61 44.0627 1128 44.0627H1128.7C1131.4 44.0627 1132.1 45.059 1132.1 49.0443Z" fill="white"/>
<path d="M1169.28 56.1181C1183.66 56.1181 1190.76 66.4797 1190.76 80.3284V81.6236C1190.76 85.6089 1189.86 86.6052 1185.96 86.6052H1160.58C1161.68 92.2841 1164.78 95.2731 1170.87 95.2731C1175.47 95.2731 1178.47 93.8782 1180.86 92.3838C1184.16 90.4908 1185.06 90.4908 1186.76 92.2841L1188.96 94.5756C1189.86 95.572 1190.26 96.369 1190.26 97.166C1190.26 98.0627 1189.76 98.9594 1188.56 99.9557C1184.96 103.044 1179.97 105.834 1170.97 105.834C1157.19 105.834 1147.89 97.5646 1147.89 81.0258C1147.89 66.679 1155.69 56.1181 1169.28 56.1181ZM1169.28 66.679C1164.38 66.679 1161.28 69.9668 1160.38 76.2435H1178.67C1177.67 70.0664 1174.37 66.679 1169.28 66.679Z" fill="white"/>
<path d="M1199.66 99.8561V62.1956C1199.66 58.2103 1200.66 57.214 1204.66 57.214H1206.75C1210.75 57.214 1211.75 58.2103 1211.75 62.1956V65.6827C1212.85 60.0037 1218.04 56.1181 1224.54 56.1181C1229.73 56.1181 1235.53 58.6089 1238.03 65.2841C1240.02 59.7048 1244.62 56.1181 1251.61 56.1181C1259.31 56.1181 1267 60.4022 1267 72.7565V99.8561C1267 103.841 1266 104.838 1262 104.838H1259.81C1255.91 104.838 1254.81 103.841 1254.81 99.8561V78.3358C1254.81 71.4613 1253.31 67.6753 1248.42 67.6753C1243.62 67.6753 1239.32 72.1587 1239.32 80.3284V99.8561C1239.32 103.841 1238.33 104.838 1234.33 104.838H1232.23C1228.23 104.838 1227.24 103.841 1227.24 99.8561V78.3358C1227.24 71.4613 1224.84 67.6753 1220.34 67.6753C1216.25 67.6753 1211.95 71.0627 1211.75 79.8303V99.8561C1211.75 103.841 1210.75 104.838 1206.75 104.838H1204.66C1200.66 104.838 1199.66 103.841 1199.66 99.8561Z" fill="white"/>
</g>
<defs>
<clipPath id="clip0_1704_2438">
<rect width="1303" height="142" fill="white"/>
</clipPath>
</defs>
</svg>
